<?xml version="1.0" encoding="UTF-8" standalone="no"?>
<svg
   id="master-artboard"
   viewBox="0 0 1400 1000"
   version="1.1"
   x="0px"
   y="0px"
   style="enable-background:new 0 0 1400 1000;"
   width="1400px"
   height="1000px"
   sodipodi:docname="dubai.svg"
   inkscape:version="1.2.1 (9c6d41e410, 2022-07-14)"
   xmlns:inkscape="http://www.inkscape.org/namespaces/inkscape"
   xmlns:sodipodi="http://sodipodi.sourceforge.net/DTD/sodipodi-0.dtd"
   xmlns="http://www.w3.org/2000/svg"
   xmlns:svg="http://www.w3.org/2000/svg">
  <defs
     id="defs1529" />
  <sodipodi:namedview
     id="namedview1527"
     pagecolor="#ffffff"
     bordercolor="#000000"
     borderopacity="0.25"
     inkscape:showpageshadow="2"
     inkscape:pageopacity="0.0"
     inkscape:pagecheckerboard="0"
     inkscape:deskcolor="#d1d1d1"
     showgrid="false"
     inkscape:zoom="0.5135"
     inkscape:cx="896.78676"
     inkscape:cy="468.35443"
     inkscape:window-width="2560"
     inkscape:window-height="1316"
     inkscape:window-x="-12"
     inkscape:window-y="-12"
     inkscape:window-maximized="1"
     inkscape:current-layer="g1524" />
  <g
     transform="translate(0,1.3770337)"
     id="g1524">
    <g
       id="g922">
      <path
         class="st1"
         d="m 1030.6,219.9 c -2.2,0 -4.4,0.3 -6.4,1 0.4,-1.5 0.6,-3.1 0.6,-4.7 0,-13.7 -13.6,-24.9 -30.4,-24.9 -5.8,0 -11.2,1.3 -15.9,3.7 -4.1,-11.1 -15.8,-19.1 -29.6,-19.1 -16.8,0 -30.6,11.9 -31.2,26.8 -6.9,-3.8 -15.4,-4.1 -22.7,-0.3 -9.2,4.9 -13.9,15.2 -12.3,25.2 -12.8,0.7 -23,10.3 -23,22 0,12.1 10.8,21.8 24.2,22 3.3,12 14.2,20.8 27.2,20.8 5.9,0 11.4,-1.8 15.9,-4.9 5.1,9.2 15,15.5 26.3,15.5 13.9,0 25.5,-9.4 29,-22.2 4.7,4.4 11,7 17.9,7 14.6,0 26.4,-11.8 26.4,-26.4 0,-0.2 0,-0.4 0,-0.6 1.3,0.2 2.6,0.4 3.9,0.4 11.7,0 21.2,-9.2 21.2,-20.6 0,-11.4 -9.4,-20.7 -21.1,-20.7 z"
         style="fill:#ffffff"
         id="path920" />
    </g>
    <g
       id="g926">
      <path
         class="st1"
         d="m 1247.2,341.3 c -1.8,0 -3.5,0.3 -5.1,0.8 0.3,-1.2 0.4,-2.5 0.4,-3.8 0,-11 -10.9,-19.9 -24.3,-19.9 -4.7,0 -9,1.1 -12.7,2.9 -3.3,-8.9 -12.6,-15.3 -23.7,-15.3 -13.5,0 -24.5,9.5 -24.9,21.5 -5.5,-3 -12.3,-3.3 -18.1,-0.2 -7.4,3.9 -11.1,12.1 -9.8,20.1 -10.3,0.6 -18.4,8.2 -18.4,17.6 0,9.6 8.6,17.5 19.4,17.6 2.6,9.6 11.4,16.6 21.8,16.6 4.7,0 9.1,-1.4 12.7,-3.9 4.1,7.4 12,12.4 21,12.4 11.1,0 20.4,-7.5 23.2,-17.7 3.8,3.5 8.8,5.6 14.3,5.6 11.7,0 21.1,-9.4 21.1,-21.1 0,-0.2 0,-0.3 0,-0.5 1,0.2 2.1,0.3 3.1,0.3 9.3,0 16.9,-7.4 16.9,-16.5 0.1,-9.2 -7.5,-16.5 -16.9,-16.5 z"
         style="fill:#ffffff"
         id="path924" />
    </g>
    <g
       id="g930"
       transform="translate(-5.842259,-28.237585)">
      <path
         class="st1"
         d="m 311.3,316 c -1.8,0 -3.5,0.3 -5.2,0.8 0.3,-1.2 0.4,-2.5 0.4,-3.8 0,-11.1 -11,-20.2 -24.6,-20.2 -4.7,0 -9.1,1.1 -12.8,3 -3.3,-9 -12.8,-15.4 -24,-15.4 -13.6,0 -24.8,9.7 -25.2,21.7 -5.6,-3 -12.4,-3.4 -18.3,-0.2 -7.5,4 -11.2,12.3 -9.9,20.4 -10.4,0.6 -18.6,8.3 -18.6,17.8 0,9.8 8.7,17.7 19.6,17.8 2.6,9.7 11.5,16.8 22,16.8 4.8,0 9.2,-1.5 12.9,-4 4.2,7.5 12.1,12.5 21.3,12.5 11.2,0 20.7,-7.6 23.5,-18 3.8,3.5 8.9,5.7 14.5,5.7 11.8,0 21.4,-9.6 21.4,-21.4 0,-0.2 0,-0.3 0,-0.5 1,0.2 2.1,0.3 3.2,0.3 9.5,0 17.1,-7.5 17.1,-16.7 0,-9.2 -7.9,-16.6 -17.3,-16.6 z"
         style="fill:#ffffff"
         id="path928" />
    </g>
    <g
       id="g934">
      <path
         class="st1"
         d="m 535.9,193.4 c -1.8,0 -3.5,0.3 -5.1,0.8 0.3,-1.2 0.4,-2.5 0.4,-3.8 0,-10.9 -10.8,-19.8 -24.2,-19.8 -4.6,0 -9,1.1 -12.6,2.9 -3.3,-8.8 -12.6,-15.2 -23.6,-15.2 -13.4,0 -24.3,9.5 -24.8,21.4 -5.5,-3 -12.2,-3.3 -18,-0.2 -7.4,3.9 -11,12.1 -9.8,20 -10.2,0.6 -18.3,8.2 -18.3,17.5 0,9.6 8.6,17.4 19.3,17.5 2.6,9.5 11.3,16.5 21.7,16.5 4.7,0 9,-1.4 12.6,-3.9 4.1,7.3 11.9,12.3 20.9,12.3 11,0 20.3,-7.5 23.1,-17.6 3.7,3.5 8.8,5.6 14.3,5.6 11.6,0 21,-9.4 21,-21 0,-0.2 0,-0.3 0,-0.5 1,0.2 2.1,0.3 3.1,0.3 9.3,0 16.8,-7.3 16.8,-16.4 0.1,-9.1 -7.5,-16.4 -16.8,-16.4 z"
         style="fill:#ffffff"
         id="path932" />
    </g>
    <g
       id="g1498">
      <path
         d="m 135.39999,839.29999 v -211 h 35 V 450 h 101.70002 v -78.89999 h 167 v 131.5 l 32.6,32.80001 V 642.70001 H 508 V 475.5 H 642.29999 V 549 h 59.5 V 464.79999 H 795.5 V 338.20001 h 115.40002 v 81.19998 l 33.5,33.9 V 551 H 1005.1 V 423.29999 h 106.6 v 77.30002 L 1157.7,547 h 46.7 v 75.5 h 57.5 v 216.79999 z"
         class="st2"
         style="opacity:0.67;fill:#efd2a3"
         id="path936" />
      <path
         class="st2"
         d="m 1294.2,850.4 h -1191 c -8.9,0 -16.2,7.2 -16.2,16.2 v 0.2 c 0,8.9 7.2,16.2 16.2,16.2 H 294 c 8,1 14.1,7.8 14.1,16 v 0.2 c 0,8.9 -7.2,16.2 -16.2,16.2 l 6.7,0.3 H 175.5 c -8.9,0 -16.2,7.2 -16.2,16.2 v 0.2 c 0,8.9 7.2,16.2 16.2,16.2 h 1055.2 c 8.9,0 16.2,-7.2 16.2,-16.2 v -0.2 c 0,-8.9 -7.2,-16.2 -16.2,-16.2 l -124.2,-0.3 c -8.9,0 -16.2,-7.2 -16.2,-16.2 V 899 c 0,-8.2 6.2,-15 14.1,-16 h 189.8 c 8.9,0 16.2,-7.2 16.2,-16.2 v -0.2 c -0.1,-8.9 -7.3,-16.2 -16.2,-16.2 z"
         style="opacity:0.67;fill:#efd2a3"
         id="path938" />
      <g
         id="g1494">
        <g
           id="g988">
          <path
             d="M 1048.1,594.70001 V 643 h -8.9 v 197 h 82.6 V 585.40002 L 1063.4,541 1039.2,522.5 v 72.20001 z"
             class="st3"
             style="fill:#ffac1a"
             id="path940" />
          <path
             d="m 1039.2,497.5 v 97.20001 h 8.9 V 643 h -8.9 v 126.70001 h 24.2 V 515.90002 l -15.3,-11.70001 z"
             class="st3"
             style="fill:#ffac1a"
             id="path942" />
          <path
             d="m 1039.2,456 v 138.70001 h 8.9 V 462.79999 Z"
             class="st3"
             style="fill:#ffac1a"
             id="path944" />
          <path
             d="m 1039.2,643 h 8.9 v 39.1 h -8.9 z"
             class="st3"
             style="fill:#ffac1a"
             id="path946" />
          <g
             id="g972">
            <path
               d="m 1053.2,655.40002 h 46.1 v 6.9 h -46.1 z"
               class="st4"
               style="fill:#a34d00"
               id="path948" />
            <path
               d="m 1053.2,669.90002 h 46.1 v 6.9 h -46.1 z"
               class="st4"
               style="fill:#a34d00"
               id="path950" />
            <path
               d="m 1053.2,684.5 h 46.1 v 6.9 h -46.1 z"
               class="st4"
               style="fill:#a34d00"
               id="path952" />
            <path
               d="m 1053.2,699 h 46.1 v 6.9 h -46.1 z"
               class="st4"
               style="fill:#a34d00"
               id="path954" />
            <path
               d="m 1053.2,713.5 h 46.1 v 6.9 h -46.1 z"
               class="st4"
               style="fill:#a34d00"
               id="path956" />
            <path
               d="m 1053.2,728.09998 h 46.1 v 6.9 h -46.1 z"
               class="st4"
               style="fill:#a34d00"
               id="path958" />
            <path
               d="m 1053.2,742.59998 h 46.1 v 6.9 h -46.1 z"
               class="st4"
               style="fill:#a34d00"
               id="path960" />
            <path
               d="m 1053.2,757.09998 h 46.1 v 6.9 h -46.1 z"
               class="st4"
               style="fill:#a34d00"
               id="path962" />
            <path
               d="m 1053.2,771.70001 h 46.1 v 6.9 h -46.1 z"
               class="st4"
               style="fill:#a34d00"
               id="path964" />
            <path
               d="m 1053.2,786.20001 h 46.1 v 6.9 h -46.1 z"
               class="st4"
               style="fill:#a34d00"
               id="path966" />
            <path
               d="m 1053.2,800.70001 h 46.1 v 6.9 h -46.1 z"
               class="st4"
               style="fill:#a34d00"
               id="path968" />
            <path
               d="m 1053.2,815.29999 h 46.1 v 6.9 h -46.1 z"
               class="st4"
               style="fill:#a34d00"
               id="path970" />
          </g>
          <path
             d="m 1048.1,594.70001 h 55.6 v 48.3 h -55.6 z"
             class="st4"
             style="fill:#a34d00"
             id="path974" />
          <g
             id="g986">
            <path
               d="m 1094,597.79999 h 5 v 41.5 h -5 z"
               class="st5"
               style="fill:#ffc033"
               id="path976" />
            <path
               d="m 1083.9,597.79999 h 5 v 41.5 h -5 z"
               class="st5"
               style="fill:#ffc033"
               id="path978" />
            <path
               d="m 1073.9,597.79999 h 5 v 41.5 h -5 z"
               class="st5"
               style="fill:#ffc033"
               id="path980" />
            <path
               d="m 1063.8,597.79999 h 5 v 41.5 h -5 z"
               class="st5"
               style="fill:#ffc033"
               id="path982" />
            <path
               d="m 1053.7,597.79999 h 5 v 41.5 h -5 z"
               class="st5"
               style="fill:#ffc033"
               id="path984" />
          </g>
        </g>
        <g
           id="g1042">
          <path
             d="M 1018.4,557.20001 V 605.5 h 9 V 840 H 944.70001 V 547.90002 L 1003.1,503.5 1027.4,485 v 72.20001 z"
             class="st3"
             style="fill:#ffac1a"
             id="path990" />
          <path
             d="m 1027.4,459.89999 v 97.30002 h -9 V 605.5 h 9 v 126.70001 h -24.3 V 478.39999 l 15.3,-11.69998 z"
             class="st3"
             style="fill:#ffac1a"
             id="path992" />
          <path
             d="m 1027.4,418.39999 v 138.80002 h -9 v -132 z"
             class="st3"
             style="fill:#ffac1a"
             id="path994" />
          <path
             d="m 1018.4,605.5 h 8.9 v 39.1 h -8.9 z"
             class="st3"
             style="fill:#ffac1a"
             id="path996" />
          <path
             d="M 967.20001,617.90002 H 1013.3 v 6.9 h -46.09999 z"
             class="st4"
             style="fill:#a34d00"
             id="path998" />
          <path
             d="M 967.20001,632.40002 H 1013.3 v 6.9 h -46.09999 z"
             class="st4"
             style="fill:#a34d00"
             id="path1000" />
          <path
             d="M 967.20001,646.90002 H 1013.3 v 6.9 h -46.09999 z"
             class="st4"
             style="fill:#a34d00"
             id="path1002" />
          <path
             d="M 967.20001,661.5 H 1013.3 v 6.9 h -46.09999 z"
             class="st4"
             style="fill:#a34d00"
             id="path1004" />
          <path
             d="M 967.20001,676 H 1013.3 v 6.9 h -46.09999 z"
             class="st4"
             style="fill:#a34d00"
             id="path1006" />
          <path
             d="M 967.20001,690.5 H 1013.3 v 6.9 h -46.09999 z"
             class="st4"
             style="fill:#a34d00"
             id="path1008" />
          <path
             d="M 967.20001,705.09998 H 1013.3 v 6.9 h -46.09999 z"
             class="st4"
             style="fill:#a34d00"
             id="path1010" />
          <path
             d="M 967.20001,719.59998 H 1013.3 v 6.9 h -46.09999 z"
             class="st4"
             style="fill:#a34d00"
             id="path1012" />
          <path
             d="M 967.20001,734.09998 H 1013.3 v 6.9 h -46.09999 z"
             class="st4"
             style="fill:#a34d00"
             id="path1014" />
          <path
             d="M 967.20001,748.70001 H 1013.3 v 6.9 h -46.09999 z"
             class="st4"
             style="fill:#a34d00"
             id="path1016" />
          <path
             d="M 967.20001,763.20001 H 1013.3 v 6.9 h -46.09999 z"
             class="st4"
             style="fill:#a34d00"
             id="path1018" />
          <path
             d="M 967.20001,777.70001 H 1013.3 v 6.9 h -46.09999 z"
             class="st4"
             style="fill:#a34d00"
             id="path1020" />
          <g
             id="g1026">
            <path
               d="M 967.20001,792.20001 H 1013.3 v 6.9 h -46.09999 z"
               class="st4"
               style="fill:#a34d00"
               id="path1022" />
            <path
               d="M 967.20001,806.70001 H 1013.3 v 6.9 h -46.09999 z"
               class="st4"
               style="fill:#a34d00"
               id="path1024" />
          </g>
          <path
             d="M 962.79999,557.20001 H 1018.4 v 48.3 h -55.60001 z"
             class="st4"
             style="fill:#a34d00"
             id="path1028" />
          <g
             id="g1040">
            <path
               d="m 967.5,560.29999 h 5 v 41.5 h -5 z"
               class="st5"
               style="fill:#ffc033"
               id="path1030" />
            <path
               d="m 977.59998,560.29999 h 5 v 41.5 h -5 z"
               class="st5"
               style="fill:#ffc033"
               id="path1032" />
            <path
               d="m 987.70001,560.29999 h 5 v 41.5 h -5 z"
               class="st5"
               style="fill:#ffc033"
               id="path1034" />
            <path
               d="M 997.70001,560.29999 H 1002.7 v 41.5 h -4.99999 z"
               class="st5"
               style="fill:#ffc033"
               id="path1036" />
            <path
               d="m 1007.8,560.29999 h 5 v 41.5 h -5 z"
               class="st5"
               style="fill:#ffc033"
               id="path1038" />
          </g>
        </g>
        <g
           id="g1114">
          <path
             d="M 160.8,548.29999 H 280.5 V 840 H 160.8 Z"
             transform="matrix(1,-0.00167778,0.00167778,1,-1.1643,0.3711)"
             class="st3"
             style="fill:#ffac1a"
             id="path1044" />
          <g
             id="g1112">
            <g
               id="g1066">
              <path
                 d="m 239.89999,564.70001 h 29.9 v 6.9 h -29.9 z"
                 transform="matrix(1,-0.00167778,0.00167778,1,-0.9528,0.4283)"
                 class="st1"
                 style="fill:#ffffff"
                 id="path1046" />
              <path
                 d="m 239.89999,592.70001 h 29.9 v 6.9 h -29.9 z"
                 transform="matrix(1,-0.00167778,0.00167778,1,-0.9998,0.4285)"
                 class="st1"
                 style="fill:#ffffff"
                 id="path1048" />
              <path
                 d="m 240,620.70001 h 29.9 v 6.9 H 240 Z"
                 transform="matrix(1,-0.00167778,0.00167778,1,-1.0468,0.4286)"
                 class="st1"
                 style="fill:#ffffff"
                 id="path1050" />
              <path
                 d="m 240,648.70001 h 29.9 v 6.9 H 240 Z"
                 transform="matrix(1,-0.00167778,0.00167778,1,-1.0937,0.4287)"
                 class="st1"
                 style="fill:#ffffff"
                 id="path1052" />
              <path
                 d="m 240.10001,676.70001 h 29.9 v 6.9 h -29.9 z"
                 transform="matrix(1,-0.00167778,0.00167778,1,-1.1407,0.4288)"
                 class="st1"
                 style="fill:#ffffff"
                 id="path1054" />
              <path
                 d="m 240.10001,704.59998 h 29.9 v 6.9 h -29.9 z"
                 transform="matrix(1,-0.00167778,0.00167778,1,-1.1876,0.4289)"
                 class="st1"
                 style="fill:#ffffff"
                 id="path1056" />
              <path
                 d="m 240.10001,732.59998 h 29.9 v 6.9 h -29.9 z"
                 transform="matrix(1,-0.00167778,0.00167778,1,-1.2346,0.429)"
                 class="st1"
                 style="fill:#ffffff"
                 id="path1058" />
              <path
                 d="m 240.2,760.59998 h 29.9 v 6.9 h -29.9 z"
                 transform="matrix(1,-0.00167778,0.00167778,1,-1.2816,0.4292)"
                 class="st1"
                 style="fill:#ffffff"
                 id="path1060" />
              <path
                 d="m 240.2,788.59998 h 29.9 v 6.9 h -29.9 z"
                 transform="matrix(1,-0.00167778,0.00167778,1,-1.3285,0.4293)"
                 class="st1"
                 style="fill:#ffffff"
                 id="path1062" />
              <path
                 d="m 240.3,816.59998 h 29.9 v 6.9 h -29.9 z"
                 transform="matrix(1,-0.00167778,0.00167778,1,-1.3755,0.4294)"
                 class="st1"
                 style="fill:#ffffff"
                 id="path1064" />
            </g>
            <g
               id="g1088">
              <path
                 d="m 171.10001,564.79999 h 29.9 v 6.9 h -29.9 z"
                 transform="matrix(1,-0.00167778,0.00167778,1,-0.9531,0.3129)"
                 class="st4"
                 style="fill:#a34d00"
                 id="path1068" />
              <path
                 d="m 171.10001,592.79999 h 29.9 v 6.9 h -29.9 z"
                 transform="matrix(1,-0.00167778,0.00167778,1,-1.0001,0.313)"
                 class="st4"
                 style="fill:#a34d00"
                 id="path1070" />
              <path
                 d="m 171.10001,620.79999 h 29.9 v 6.9 h -29.9 z"
                 transform="matrix(1,-0.00167778,0.00167778,1,-1.047,0.3131)"
                 class="st4"
                 style="fill:#a34d00"
                 id="path1072" />
              <path
                 d="m 171.2,648.79999 h 29.9 v 6.9 h -29.9 z"
                 transform="matrix(1,-0.00167778,0.00167778,1,-1.094,0.3132)"
                 class="st4"
                 style="fill:#a34d00"
                 id="path1074" />
              <path
                 d="m 171.2,676.79999 h 29.9 v 6.9 h -29.9 z"
                 transform="matrix(1,-0.00167778,0.00167778,1,-1.141,0.3134)"
                 class="st4"
                 style="fill:#a34d00"
                 id="path1076" />
              <path
                 d="m 171.3,704.79999 h 29.9 v 6.9 h -29.9 z"
                 transform="matrix(1,-0.00167778,0.00167778,1,-1.1879,0.3135)"
                 class="st4"
                 style="fill:#a34d00"
                 id="path1078" />
              <path
                 d="m 171.3,732.79999 h 29.9 v 6.9 h -29.9 z"
                 transform="matrix(1,-0.00167778,0.00167778,1,-1.2349,0.3136)"
                 class="st4"
                 style="fill:#a34d00"
                 id="path1080" />
              <path
                 d="m 171.39999,760.70001 h 29.9 v 6.9 h -29.9 z"
                 transform="matrix(1,-0.00167778,0.00167778,1,-1.2819,0.3137)"
                 class="st4"
                 style="fill:#a34d00"
                 id="path1082" />
              <path
                 d="m 171.39999,788.70001 h 29.9 v 6.9 h -29.9 z"
                 transform="matrix(1,-0.00167778,0.00167778,1,-1.3288,0.3138)"
                 class="st4"
                 style="fill:#a34d00"
                 id="path1084" />
              <path
                 d="m 171.5,816.70001 h 29.9 v 6.9 h -29.9 z"
                 transform="matrix(1,-0.00167778,0.00167778,1,-1.3758,0.3139)"
                 class="st4"
                 style="fill:#a34d00"
                 id="path1086" />
            </g>
            <g
               id="g1110">
              <path
                 d="m 215,564.70001 h 11.2 v 6.9 H 215 Z"
                 transform="matrix(1,-0.00167778,0.00167778,1,-0.953,0.3709)"
                 class="st1"
                 style="fill:#ffffff"
                 id="path1090" />
              <path
                 d="m 215,592.70001 h 11.2 v 6.9 H 215 Z"
                 transform="matrix(1,-0.00167778,0.00167778,1,-0.9999,0.371)"
                 class="st1"
                 style="fill:#ffffff"
                 id="path1092" />
              <path
                 d="m 215.10001,620.70001 h 11.2 v 6.9 h -11.2 z"
                 transform="matrix(1,-0.00167778,0.00167778,1,-1.0469,0.3712)"
                 class="st1"
                 style="fill:#ffffff"
                 id="path1094" />
              <path
                 d="m 215.10001,648.70001 h 11.2 v 6.9 h -11.2 z"
                 transform="matrix(1,-0.00167778,0.00167778,1,-1.0939,0.3713)"
                 class="st1"
                 style="fill:#ffffff"
                 id="path1096" />
              <path
                 d="m 215.2,676.70001 h 11.2 v 6.9 h -11.2 z"
                 transform="matrix(1,-0.00167778,0.00167778,1,-1.1408,0.3714)"
                 class="st1"
                 style="fill:#ffffff"
                 id="path1098" />
              <path
                 d="m 215.2,704.70001 h 11.2 v 6.9 h -11.2 z"
                 transform="matrix(1,-0.00167778,0.00167778,1,-1.1878,0.3715)"
                 class="st1"
                 style="fill:#ffffff"
                 id="path1100" />
              <path
                 d="m 215.3,732.70001 h 11.2 v 6.9 h -11.2 z"
                 transform="matrix(1,-0.00167778,0.00167778,1,-1.2348,0.3716)"
                 class="st1"
                 style="fill:#ffffff"
                 id="path1102" />
              <path
                 d="m 215.3,760.70001 h 11.2 v 6.9 h -11.2 z"
                 transform="matrix(1,-0.00167778,0.00167778,1,-1.2817,0.3718)"
                 class="st1"
                 style="fill:#ffffff"
                 id="path1104" />
              <path
                 d="m 215.39999,788.70001 h 11.2 v 6.9 h -11.2 z"
                 transform="matrix(1,-0.00167778,0.00167778,1,-1.3287,0.3719)"
                 class="st1"
                 style="fill:#ffffff"
                 id="path1106" />
              <path
                 d="m 215.39999,816.70001 h 11.2 v 6.9 h -11.2 z"
                 transform="matrix(1,-0.00167778,0.00167778,1,-1.3756,0.372)"
                 class="st1"
                 style="fill:#ffffff"
                 id="path1108" />
            </g>
          </g>
        </g>
        <g
           id="g1140">
          <path
             d="M 565.59998,551.29999 457.39999,599.09998 V 840 h 108.19999 z"
             class="st4"
             style="fill:#a34d00"
             id="path1116" />
          <g
             id="g1138">
            <path
               d="m 479.39999,612.20001 h 71.9 v 6.5 h -71.9 z"
               class="st1"
               style="fill:#ffffff"
               id="path1118" />
            <path
               d="m 479.39999,634.90002 h 71.9 v 6.5 h -71.9 z"
               class="st1"
               style="fill:#ffffff"
               id="path1120" />
            <path
               d="m 479.39999,657.70001 h 71.9 v 6.5 h -71.9 z"
               class="st1"
               style="fill:#ffffff"
               id="path1122" />
            <path
               d="m 479.39999,680.40002 h 71.9 v 6.5 h -71.9 z"
               class="st1"
               style="fill:#ffffff"
               id="path1124" />
            <path
               d="m 479.39999,703.09998 h 71.9 v 6.5 h -71.9 z"
               class="st1"
               style="fill:#ffffff"
               id="path1126" />
            <path
               d="m 479.39999,725.90002 h 71.9 v 6.5 h -71.9 z"
               class="st1"
               style="fill:#ffffff"
               id="path1128" />
            <path
               d="m 479.39999,748.59998 h 71.9 v 6.5 h -71.9 z"
               class="st1"
               style="fill:#ffffff"
               id="path1130" />
            <path
               d="m 479.39999,771.40002 h 71.9 v 6.5 h -71.9 z"
               class="st1"
               style="fill:#ffffff"
               id="path1132" />
            <path
               d="m 479.39999,794.09998 h 71.9 v 6.5 h -71.9 z"
               class="st1"
               style="fill:#ffffff"
               id="path1134" />
            <path
               d="m 479.39999,816.79999 h 71.9 v 6.5 h -71.9 z"
               class="st1"
               style="fill:#ffffff"
               id="path1136" />
          </g>
        </g>
        <g
           id="g1268">
          <path
             d="m 764.70001,566.79999 h 147.8 v 281 h -147.8 z"
             class="st3"
             style="fill:#ffac1a"
             id="path1142" />
          <path
             d="m 779.20001,501 h 118.8 v 65.8 h -118.8 z"
             class="st6"
             style="fill:#ff931d"
             id="path1144" />
          <path
             d="m 779.20001,561.20001 h 118.8 v 5.6 h -118.8 z"
             class="st7"
             style="opacity:0.29;fill:#a34d00"
             id="path1146" />
          <path
             d="m 792.59998,462.5 h 92.09999 v 38.6 h -92.09999 z"
             class="st8"
             style="fill:#ff6a1f"
             id="path1148" />
          <g
             id="g1240">
            <g
               id="g1158">
              <path
                 d="m 784.20001,578.90002 h 13.8 v 13.8 h -13.8 z"
                 class="st1"
                 style="fill:#ffffff"
                 id="path1150" />
              <path
                 d="m 815.90002,578.90002 h 13.8 v 13.8 h -13.8 z"
                 class="st1"
                 style="fill:#ffffff"
                 id="path1152" />
              <path
                 d="m 847.70001,578.90002 h 13.8 v 13.8 h -13.8 z"
                 class="st1"
                 style="fill:#ffffff"
                 id="path1154" />
              <path
                 d="m 879.5,578.90002 h 13.8 v 13.8 h -13.8 z"
                 class="st1"
                 style="fill:#ffffff"
                 id="path1156" />
            </g>
            <g
               id="g1168">
              <path
                 d="m 784.20001,608.5 h 13.8 v 13.8 h -13.8 z"
                 class="st1"
                 style="fill:#ffffff"
                 id="path1160" />
              <path
                 d="m 815.90002,608.5 h 13.8 v 13.8 h -13.8 z"
                 class="st1"
                 style="fill:#ffffff"
                 id="path1162" />
              <path
                 d="m 847.70001,608.5 h 13.8 v 13.8 h -13.8 z"
                 class="st1"
                 style="fill:#ffffff"
                 id="path1164" />
              <path
                 d="m 879.5,608.5 h 13.8 v 13.8 h -13.8 z"
                 class="st1"
                 style="fill:#ffffff"
                 id="path1166" />
            </g>
            <g
               id="g1178">
              <path
                 d="m 784.20001,638.09998 h 13.8 v 13.8 h -13.8 z"
                 class="st1"
                 style="fill:#ffffff"
                 id="path1170" />
              <path
                 d="m 815.90002,638.09998 h 13.8 v 13.8 h -13.8 z"
                 class="st1"
                 style="fill:#ffffff"
                 id="path1172" />
              <path
                 d="m 847.70001,638.09998 h 13.8 v 13.8 h -13.8 z"
                 class="st1"
                 style="fill:#ffffff"
                 id="path1174" />
              <path
                 d="m 879.5,638.09998 h 13.8 v 13.8 h -13.8 z"
                 class="st1"
                 style="fill:#ffffff"
                 id="path1176" />
            </g>
            <g
               id="g1188">
              <path
                 d="m 784.20001,667.70001 h 13.8 v 13.8 h -13.8 z"
                 class="st1"
                 style="fill:#ffffff"
                 id="path1180" />
              <path
                 d="m 815.90002,667.70001 h 13.8 v 13.8 h -13.8 z"
                 class="st1"
                 style="fill:#ffffff"
                 id="path1182" />
              <path
                 d="m 847.70001,667.70001 h 13.8 v 13.8 h -13.8 z"
                 class="st1"
                 style="fill:#ffffff"
                 id="path1184" />
              <path
                 d="m 879.5,667.70001 h 13.8 v 13.8 h -13.8 z"
                 class="st1"
                 style="fill:#ffffff"
                 id="path1186" />
            </g>
            <g
               id="g1198">
              <path
                 d="m 784.20001,697.40002 h 13.8 v 13.8 h -13.8 z"
                 class="st1"
                 style="fill:#ffffff"
                 id="path1190" />
              <path
                 d="m 815.90002,697.40002 h 13.8 v 13.8 h -13.8 z"
                 class="st1"
                 style="fill:#ffffff"
                 id="path1192" />
              <path
                 d="m 847.70001,697.40002 h 13.8 v 13.8 h -13.8 z"
                 class="st1"
                 style="fill:#ffffff"
                 id="path1194" />
              <path
                 d="m 879.5,697.40002 h 13.8 v 13.8 h -13.8 z"
                 class="st1"
                 style="fill:#ffffff"
                 id="path1196" />
            </g>
            <g
               id="g1208">
              <path
                 d="m 784.20001,727 h 13.8 v 13.8 h -13.8 z"
                 class="st1"
                 style="fill:#ffffff"
                 id="path1200" />
              <path
                 d="m 815.90002,727 h 13.8 v 13.8 h -13.8 z"
                 class="st1"
                 style="fill:#ffffff"
                 id="path1202" />
              <path
                 d="m 847.70001,727 h 13.8 v 13.8 h -13.8 z"
                 class="st1"
                 style="fill:#ffffff"
                 id="path1204" />
              <path
                 d="m 879.5,727 h 13.8 v 13.8 h -13.8 z"
                 class="st1"
                 style="fill:#ffffff"
                 id="path1206" />
            </g>
            <g
               id="g1218">
              <path
                 d="m 784.20001,756.59998 h 13.8 v 13.8 h -13.8 z"
                 class="st1"
                 style="fill:#ffffff"
                 id="path1210" />
              <path
                 d="m 815.90002,756.59998 h 13.8 v 13.8 h -13.8 z"
                 class="st1"
                 style="fill:#ffffff"
                 id="path1212" />
              <path
                 d="m 847.70001,756.59998 h 13.8 v 13.8 h -13.8 z"
                 class="st1"
                 style="fill:#ffffff"
                 id="path1214" />
              <path
                 d="m 879.5,756.59998 h 13.8 v 13.8 h -13.8 z"
                 class="st1"
                 style="fill:#ffffff"
                 id="path1216" />
            </g>
            <g
               id="g1228">
              <path
                 d="m 784.20001,786.20001 h 13.8 v 13.8 h -13.8 z"
                 class="st1"
                 style="fill:#ffffff"
                 id="path1220" />
              <path
                 d="m 815.90002,786.20001 h 13.8 v 13.8 h -13.8 z"
                 class="st1"
                 style="fill:#ffffff"
                 id="path1222" />
              <path
                 d="m 847.70001,786.20001 h 13.8 v 13.8 h -13.8 z"
                 class="st1"
                 style="fill:#ffffff"
                 id="path1224" />
              <path
                 d="m 879.5,786.20001 h 13.8 v 13.8 h -13.8 z"
                 class="st1"
                 style="fill:#ffffff"
                 id="path1226" />
            </g>
            <g
               id="g1238">
              <path
                 d="m 784.20001,815.90002 h 13.8 v 13.8 h -13.8 z"
                 class="st1"
                 style="fill:#ffffff"
                 id="path1230" />
              <path
                 d="m 815.90002,815.90002 h 13.8 v 13.8 h -13.8 z"
                 class="st1"
                 style="fill:#ffffff"
                 id="path1232" />
              <path
                 d="m 847.70001,815.90002 h 13.8 v 13.8 h -13.8 z"
                 class="st1"
                 style="fill:#ffffff"
                 id="path1234" />
              <path
                 d="m 879.5,815.90002 h 13.8 v 13.8 h -13.8 z"
                 class="st1"
                 style="fill:#ffffff"
                 id="path1236" />
            </g>
          </g>
          <g
             id="g1264">
            <g
               id="g1248">
              <path
                 d="m 799.40002,510.10001 h 13.8 v 13.8 h -13.8 z"
                 class="st1"
                 style="fill:#ffffff"
                 id="path1242" />
              <path
                 d="m 831.09998,510.10001 h 13.8 v 13.8 h -13.8 z"
                 class="st1"
                 style="fill:#ffffff"
                 id="path1244" />
              <path
                 d="m 862.90002,510.10001 h 13.8 v 13.8 h -13.8 z"
                 class="st1"
                 style="fill:#ffffff"
                 id="path1246" />
            </g>
            <g
               id="g1254">
              <path
                 d="m 816,475.89999 h 13.8 v 13.8 H 816 Z"
                 class="st1"
                 style="fill:#ffffff"
                 id="path1250" />
              <path
                 d="m 847.79999,475.89999 h 13.8 v 13.8 h -13.8 z"
                 class="st1"
                 style="fill:#ffffff"
                 id="path1252" />
            </g>
            <g
               id="g1262">
              <path
                 d="m 799.40002,539.70001 h 13.8 v 13.8 h -13.8 z"
                 class="st1"
                 style="fill:#ffffff"
                 id="path1256" />
              <path
                 d="m 831.09998,539.70001 h 13.8 v 13.8 h -13.8 z"
                 class="st1"
                 style="fill:#ffffff"
                 id="path1258" />
              <path
                 d="m 862.90002,539.70001 h 13.8 v 13.8 h -13.8 z"
                 class="st1"
                 style="fill:#ffffff"
                 id="path1260" />
            </g>
          </g>
          <path
             d="m 792.59998,495.5 h 92.09999 v 5.6 h -92.09999 z"
             class="st7"
             style="opacity:0.29;fill:#a34d00"
             id="path1266" />
        </g>
        <g
           id="g1296">
          <path
             d="m 1136.5,541.79999 h 100.3 V 840 h -100.3 z"
             class="st5"
             style="fill:#ffc033"
             id="path1270" />
          <g
             id="g1294">
            <g
               id="g1292">
              <path
                 d="m 1151.8,558.59998 h 69.9001 v 7 H 1151.8 Z"
                 class="st9"
                 style="fill:#ff841f"
                 id="path1272" />
              <path
                 d="m 1151.8,587.20001 h 69.9001 v 7 H 1151.8 Z"
                 class="st9"
                 style="fill:#ff841f"
                 id="path1274" />
              <path
                 d="m 1151.8,615.79999 h 69.9001 v 7 H 1151.8 Z"
                 class="st9"
                 style="fill:#ff841f"
                 id="path1276" />
              <path
                 d="m 1151.8,644.5 h 69.9001 v 7 H 1151.8 Z"
                 class="st9"
                 style="fill:#ff841f"
                 id="path1278" />
              <path
                 d="m 1151.8,673.09998 h 69.9001 v 7 H 1151.8 Z"
                 class="st9"
                 style="fill:#ff841f"
                 id="path1280" />
              <path
                 d="m 1151.8,701.70001 h 69.9001 v 7 H 1151.8 Z"
                 class="st9"
                 style="fill:#ff841f"
                 id="path1282" />
              <path
                 d="m 1151.8,730.29999 h 69.9001 v 7 H 1151.8 Z"
                 class="st9"
                 style="fill:#ff841f"
                 id="path1284" />
              <path
                 d="m 1151.8,758.90002 h 69.9001 v 7 H 1151.8 Z"
                 class="st9"
                 style="fill:#ff841f"
                 id="path1286" />
              <path
                 d="m 1151.8,787.5 h 69.9001 v 7 H 1151.8 Z"
                 class="st9"
                 style="fill:#ff841f"
                 id="path1288" />
              <path
                 d="m 1151.8,816.20001 h 69.9001 v 7 H 1151.8 Z"
                 class="st9"
                 style="fill:#ff841f"
                 id="path1290" />
            </g>
          </g>
        </g>
        <g
           id="g1320">
          <path
             d="m 650.79999,140.7 -27,-13.6 v 127.2 h 27 z"
             class="st3"
             style="fill:#ffac1a"
             id="path1298" />
          <path
             d="m 623.79999,52 h 12.3 v 119.1 h -12.3 z"
             class="st3"
             style="fill:#ffac1a"
             id="path1300" />
          <path
             d="m 583.09998,400 h 54 v 150.39999 h -54 z"
             class="st10"
             style="fill:#ffbe1d"
             id="path1302" />
          <path
             d="M 631.79999,266.39999 V 409.5 h 32.90002 V 284.29999 Z"
             class="st3"
             style="fill:#ffac1a"
             id="path1304" />
          <path
             d="m 640.40002,234 v 143.20001 h 32.89997 V 252 Z"
             class="st3"
             style="fill:#ffac1a"
             id="path1306" />
          <path
             d="m 610.79999,220.7 h 44.3 V 463 h -44.3 z"
             class="st10"
             style="fill:#ffbe1d"
             id="path1308" />
          <path
             d="m 631.90002,313.20001 v 222 h 48.69996 v -195.5 z"
             class="st3"
             style="fill:#ffac1a"
             id="path1310" />
          <path
             d="m 655.70001,588.70001 h 82 v 251.3 h -82 z"
             class="st6"
             style="fill:#ff931d"
             id="path1312" />
          <path
             d="m 566,508.89999 h 60.8 v 150.4 H 566 Z"
             class="st3"
             style="fill:#ffac1a"
             id="path1314" />
          <path
             d="m 544.79999,610.59998 h 82 v 229.39999 h -82 z"
             class="st6"
             style="fill:#ff931d"
             id="path1316" />
          <path
             d="m 615.70001,473.79999 h 75.4 V 840 h -75.4 z"
             class="st10"
             style="fill:#ffbe1d"
             id="path1318" />
        </g>
        <g
           id="g1372">
          <path
             class="st4"
             d="M 430.6,813.9 C 442.9,772.4 447.3,731 443.9,690.4 440.6,651.8 430.2,613.9 412.9,577.9 383.5,516.7 344.6,482.1 343,480.7 L 321.2,461.6 V 813.9 Z"
             style="fill:#a34d00"
             id="path1322" />
          <path
             d="M 321.10001,813.90002 V 424.79999 l -24.30002,19.30002 v 369.80001 z"
             class="st6"
             style="fill:#ff931d"
             id="path1324" />
          <path
             class="st6"
             d="m 413.8,813.9 c 11.9,-40 16.2,-80 12.8,-119.1 -3.2,-37.3 -13.3,-73.8 -30,-108.5 -28.5,-59.1 -66,-92.4 -67.6,-93.8 L 307.9,474 v 339.9 z"
             style="fill:#ff931d"
             id="path1326" />
          <path
             class="st4"
             d="M 400.5,813.9 C 459.2,623.5 320.6,502 320.6,502 v 311.9 z"
             style="fill:#a34d00"
             id="path1328" />
          <path
             class="st11"
             d="m 320.6,502 v 26.9 c 36.9,45.8 97.5,147.4 55.1,285 h 24.8 C 459.2,623.5 320.6,502 320.6,502 Z"
             style="opacity:0.37;fill:#5e2d04"
             id="path1330" />
          <path
             class="st12"
             d="M 371.9,567.1 C 347,525.1 320.6,502 320.6,502 v 65.1 z"
             style="fill:#5e2d04"
             id="path1332" />
          <path
             d="M 448.20001,813.70001 H 279.5 L 272,840 h 183.79999 z"
             class="st6"
             style="fill:#ff931d"
             id="path1334" />
          <g
             id="g1352">
            <path
               class="st6"
               d="M 366.4,558.1 H 320.6 V 572 h 54.2 c -2.8,-4.9 -5.6,-9.5 -8.4,-13.9 z"
               style="fill:#ff931d"
               id="path1336" />
            <path
               class="st6"
               d="m 384,589.3 h -63.4 v 13.9 h 69.8 c -2.1,-4.8 -4.2,-9.4 -6.4,-13.9 z"
               style="fill:#ff931d"
               id="path1338" />
            <path
               class="st6"
               d="m 397.3,620.5 h -76.7 v 13.9 h 81.3 c -1.4,-4.7 -3,-9.3 -4.6,-13.9 z"
               style="fill:#ff931d"
               id="path1340" />
            <path
               class="st6"
               d="m 406.7,651.7 h -86.1 v 13.9 h 89.1 c -0.9,-4.7 -1.9,-9.3 -3,-13.9 z"
               style="fill:#ff931d"
               id="path1342" />
            <path
               class="st6"
               d="m 412.6,682.9 h -91.9 v 13.9 H 414 c -0.4,-4.7 -0.8,-9.3 -1.4,-13.9 z"
               style="fill:#ff931d"
               id="path1344" />
            <path
               class="st6"
               d="M 414.9,714.1 H 320.6 V 728 h 94.3 c 0.1,-4.7 0.1,-9.3 0,-13.9 z"
               style="fill:#ff931d"
               id="path1346" />
            <path
               class="st6"
               d="m 414,745.3 h -93.4 v 13.9 h 91.9 c 0.6,-4.7 1.1,-9.3 1.5,-13.9 z"
               style="fill:#ff931d"
               id="path1348" />
            <path
               class="st6"
               d="m 409.8,776.5 h -89.1 v 13.9 h 86.2 c 1,-4.7 2,-9.3 2.9,-13.9 z"
               style="fill:#ff931d"
               id="path1350" />
          </g>
          <g
             id="g1370">
            <path
               class="st6"
               d="m 399.2,558.1 h -14.4 c 2.7,4.4 5.3,9 7.9,13.9 h 13.9 z"
               style="fill:#ff931d"
               id="path1354" />
            <path
               class="st6"
               d="m 420.6,603.2 h -12.9 c -1.9,-4.7 -4,-9.3 -6.1,-13.9 h 13.3 c 2,4.6 3.9,9.3 5.7,13.9 z"
               style="fill:#ff931d"
               id="path1356" />
            <path
               class="st6"
               d="m 430.8,634.4 h -12.1 c -1.4,-4.6 -2.9,-9.3 -4.5,-13.9 h 12.5 c 1.5,4.6 2.9,9.3 4.1,13.9 z"
               style="fill:#ff931d"
               id="path1358" />
            <path
               class="st6"
               d="m 435.1,651.7 h -11.8 c 1.1,4.6 2,9.2 2.9,13.9 h 11.6 z"
               style="fill:#ff931d"
               id="path1360" />
            <path
               class="st6"
               d="m 441.3,696.8 h -11.1 c -0.1,-0.7 -0.1,-1.4 -0.2,-2.1 -0.3,-3.9 -0.8,-7.9 -1.2,-11.8 h 11.3 c 0.3,2.6 0.5,5.1 0.8,7.7 0.2,2.1 0.3,4.2 0.4,6.2 z"
               style="fill:#ff931d"
               id="path1362" />
            <path
               class="st6"
               d="m 441.8,728 h -10.7 c 0.1,-4.6 0.1,-9.3 0,-13.9 H 442 c 0,4.7 0,9.3 -0.2,13.9 z"
               style="fill:#ff931d"
               id="path1364" />
            <path
               class="st6"
               d="m 440.8,745.3 -1.5,13.9 h -10.5 c 0.6,-4.6 1,-9.3 1.4,-13.9 z"
               style="fill:#ff931d"
               id="path1366" />
            <path
               class="st6"
               d="m 436.5,776.5 c -0.8,4.6 -1.8,9.2 -2.8,13.9 h -10.4 c 1,-4.6 2,-9.3 2.8,-13.9 z"
               style="fill:#ff931d"
               id="path1368" />
          </g>
        </g>
        <g
           id="g1492">
          <path
             d="m 795.09998,703.59998 h 80 v 136.3 h -80 z"
             class="st4"
             style="fill:#a34d00"
             id="path1374" />
          <path
             d="m 795.09998,802.40002 h 80 v 37.6 h -80 z"
             class="st6"
             style="fill:#ff931d"
             id="path1376" />
          <path
             class="st6"
             d="m 849.6,784.9 c -9.3,-2.7 -13.4,-8.2 -15.2,-11.9 -0.3,-0.6 -0.5,-1.1 -0.6,-1.5 -0.2,0.5 -0.4,1 -0.6,1.5 -1.8,3.8 -5.9,9.3 -15.2,11.9 -15,4.3 -9,18 -9,18 h 24.2 1.3 24.2 c -0.1,0 5.9,-13.7 -9.1,-18 z"
             style="fill:#ff931d"
             id="path1378" />
          <path
             d="m 889.20001,691.70001 h 39.6 v 148.3 h -39.6 z"
             transform="rotate(-180,909.02395,765.8402)"
             class="st8"
             style="fill:#ff6a1f"
             id="path1380" />
          <path
             class="st4"
             d="m 855.8,674.8 c -13,-3.7 -18.7,-11.4 -21.1,-16.6 -0.4,-0.8 -0.6,-1.5 -0.9,-2.1 -0.2,0.6 -0.5,1.4 -0.9,2.1 -2.4,5.2 -8.1,12.9 -21.1,16.6 -20.8,6 -12.5,25 -12.5,25 h 33.6 1.8 33.6 c 0,0 8.3,-19.1 -12.5,-25 z"
             style="fill:#a34d00"
             id="path1382" />
          <path
             d="m 898.79999,704.79999 9.40002,-5.70001 9.5,5.70001 v 122.10003 h -18.90002 z"
             class="st4"
             style="fill:#a34d00"
             id="path1384" />
          <path
             class="st8"
             d="m 922.9,667.5 c -8.2,-2.5 -11.8,-7.6 -13.3,-11.1 -0.2,-0.5 -0.4,-1 -0.6,-1.4 -0.2,0.4 -0.3,0.9 -0.6,1.4 -1.5,3.5 -5.1,8.7 -13.3,11.1 -13.1,4 -7.9,16.8 -7.9,16.8 h 21.2 1.1 21.2 c 0.1,0 5.4,-12.8 -7.8,-16.8 z"
             style="fill:#ff6a1f"
             id="path1386" />
          <path
             d="m 883.70001,684.29999 h 50.6 v 7.4 h -50.6 z"
             transform="rotate(-180,909.02395,687.9845)"
             class="st4"
             style="fill:#a34d00"
             id="path1388" />
          <path
             class="st3"
             d="M 778.2,699.8 V 840 H 802 v -64.7 c -0.3,-9.9 14.4,-14.7 14.4,-14.7 -11.8,-6.4 -16,-20.5 0.3,-33.3 15.3,-12 16.8,-20.1 17,-21 v 0 c 0,0 0,-0.1 0,-0.1 v 0.1 c 0.1,1 1.7,9 17,21 16.3,12.8 12.2,26.9 0.3,33.3 0,0 14.7,4.8 14.4,14.7 V 840 h 23.9 V 699.8 Z"
             style="fill:#ffac1a"
             id="path1390" />
          <path
             class="st8"
             d="M 778.2,699.8 V 840 H 802 v -64.7 c -0.3,-9.9 14.4,-14.7 14.4,-14.7 -11.8,-6.4 -16,-20.5 0.3,-33.3 15.3,-12 16.8,-20.1 17,-21 v 0 c 0,0 0,-0.1 0,-0.1 v 0.1 c 0.1,1 1.7,9 17,21 16.3,12.8 12.2,26.9 0.3,33.3 0,0 14.7,4.8 14.4,14.7 V 840 h 23.9 V 699.8 Z"
             style="fill:#ff6a1f"
             id="path1392" />
          <path
             d="m 778.20001,699.79999 h 7.1 v 140.2 h -7.1 z"
             class="st13"
             style="fill:#e05212"
             id="path1394" />
          <path
             d="m 881.70001,699.79999 h 7.1 v 140.2 h -7.1 z"
             class="st13"
             style="fill:#e05212"
             id="path1396" />
          <path
             class="st8"
             d="m 992.6,701.3 c 6.6,-2 9.5,-6.1 10.7,-9 0.2,-0.4 0.3,-0.8 0.4,-1.2 0.1,0.3 0.3,0.7 0.4,1.2 1.2,2.8 4.1,7 10.7,9 10.6,3.2 6.3,13.5 6.3,13.5 H 1004 1003.1 986 c 0.3,0 -3.9,-10.3 6.6,-13.5 z"
             style="fill:#ff6a1f"
             id="path1398" />
          <path
             d="M 987.09998,720.70001 H 1019 v 119.3 h -31.90002 z"
             class="st8"
             style="fill:#ff6a1f"
             id="path1400" />
          <path
             d="m 1010.6,731.29999 -7.6,-4.59998 -7.59998,4.59998 v 98.10003 H 1010.6 Z"
             class="st4"
             style="fill:#a34d00"
             id="path1402" />
          <path
             d="M 982.59998,714.70001 H 1023.3 v 6 h -40.70002 z"
             class="st4"
             style="fill:#a34d00"
             id="path1404" />
          <path
             class="st8"
             d="m 1069.3,710.3 c 6.2,-1.9 8.9,-5.7 10,-8.4 0.2,-0.4 0.3,-0.8 0.4,-1.1 0.1,0.3 0.2,0.7 0.4,1.1 1.2,2.6 3.9,6.5 10,8.4 9.9,3 5.9,12.6 5.9,12.6 h -16 -0.8 -16 c 0.2,0 -3.7,-9.6 6.1,-12.6 z"
             style="fill:#ff6a1f"
             id="path1406" />
          <path
             d="m 1064.1,728.40002 h 29.8 v 111.5 h -29.8 z"
             class="st8"
             style="fill:#ff6a1f"
             id="path1408" />
          <path
             d="M 1086.2,738.29999 1079,734 l -7,4.29999 v 91.79999 h 14.2 z"
             class="st4"
             style="fill:#a34d00"
             id="path1410" />
          <path
             d="m 1060,722.90002 h 38.1 v 5.6 H 1060 Z"
             class="st4"
             style="fill:#a34d00"
             id="path1412" />
          <path
             d="m 928.90002,726 h 58 v 114 h -58 z"
             class="st6"
             style="fill:#ff931d"
             id="path1414" />
          <path
             d="m 1018.8,756 h 45.4 v 84 h -45.4 z"
             class="st6"
             style="fill:#ff931d"
             id="path1416" />
          <g
             id="g1426">
            <path
               d="m 809.79999,812.29999 h 7.1 v 17.5 h -7.1 z"
               class="st4"
               style="fill:#a34d00"
               id="path1418" />
            <path
               d="m 823.40002,812.29999 h 7.1 v 17.5 h -7.1 z"
               class="st4"
               style="fill:#a34d00"
               id="path1420" />
            <path
               d="m 837,812.29999 h 7.1 v 17.5 H 837 Z"
               class="st4"
               style="fill:#a34d00"
               id="path1422" />
            <path
               d="m 850.5,812.29999 h 7.1 v 17.5 h -7.1 z"
               class="st4"
               style="fill:#a34d00"
               id="path1424" />
          </g>
          <g
             id="g1436">
            <path
               d="m 935,735 h 6.5 v 92.6 H 935 Z"
               class="st4"
               style="fill:#a34d00"
               id="path1428" />
            <path
               d="m 947.5,735 h 6.5 v 92.6 h -6.5 z"
               class="st4"
               style="fill:#a34d00"
               id="path1430" />
            <path
               d="m 959.90002,735 h 6.5 v 92.6 h -6.5 z"
               class="st4"
               style="fill:#a34d00"
               id="path1432" />
            <path
               d="m 972.40002,735 h 6.5 v 92.6 h -6.5 z"
               class="st4"
               style="fill:#a34d00"
               id="path1434" />
          </g>
          <g
             id="g1444">
            <path
               d="m 1024.7,763.09998 h 6.5 v 65.8 h -6.5 z"
               class="st4"
               style="fill:#a34d00"
               id="path1438" />
            <path
               d="m 1037.1,763.09998 h 6.5 v 65.8 h -6.5 z"
               class="st4"
               style="fill:#a34d00"
               id="path1440" />
            <path
               d="m 1049.6,763.09998 h 6.5 v 65.8 h -6.5 z"
               class="st4"
               style="fill:#a34d00"
               id="path1442" />
          </g>
          <path
             d="m 738.79999,691.70001 h 39.6 v 148.3 h -39.6 z"
             class="st8"
             style="fill:#ff6a1f"
             id="path1446" />
          <path
             d="m 768.90002,704.79999 -9.5,-5.70001 L 750,704.79999 v 122.10003 h 18.90002 z"
             class="st4"
             style="fill:#a34d00"
             id="path1448" />
          <path
             class="st8"
             d="m 744.8,667.5 c 8.2,-2.5 11.8,-7.6 13.3,-11.1 0.2,-0.5 0.4,-1 0.6,-1.4 0.2,0.4 0.3,0.9 0.6,1.4 1.5,3.5 5.1,8.7 13.3,11.1 13.1,4 7.9,16.8 7.9,16.8 H 759.3 758.2 737 c -0.1,0 -5.4,-12.8 7.8,-16.8 z"
             style="fill:#ff6a1f"
             id="path1450" />
          <path
             d="m 733.40002,684.29999 h 50.6 v 7.4 h -50.6 z"
             class="st4"
             style="fill:#a34d00"
             id="path1452" />
          <path
             class="st8"
             d="m 675,701.3 c -6.6,-2 -9.5,-6.1 -10.7,-9 -0.2,-0.4 -0.3,-0.8 -0.4,-1.2 -0.1,0.3 -0.3,0.7 -0.4,1.2 -1.2,2.8 -4.1,7 -10.7,9 -10.6,3.2 -6.3,13.5 -6.3,13.5 h 17.1 0.9 17.1 c -0.2,0 4,-10.3 -6.6,-13.5 z"
             style="fill:#ff6a1f"
             id="path1454" />
          <path
             d="m 648.70001,720.70001 h 31.9 v 119.3 h -31.9 z"
             transform="rotate(180,664.65605,780.34605)"
             class="st8"
             style="fill:#ff6a1f"
             id="path1456" />
          <path
             d="m 657.09998,731.29999 7.60003,-4.59998 7.5,4.59998 v 98.10003 h -15.10003 z"
             class="st4"
             style="fill:#a34d00"
             id="path1458" />
          <path
             d="m 644.29999,714.70001 h 40.7 v 6 h -40.7 z"
             transform="rotate(180,664.6953,717.72035)"
             class="st4"
             style="fill:#a34d00"
             id="path1460" />
          <path
             class="st8"
             d="m 598.3,710.3 c -6.2,-1.9 -8.9,-5.7 -10,-8.4 -0.2,-0.4 -0.3,-0.8 -0.4,-1.1 -0.1,0.3 -0.2,0.7 -0.4,1.1 -1.2,2.6 -3.9,6.5 -10,8.4 -9.9,3 -5.9,12.6 -5.9,12.6 h 16 0.8 16 c -0.1,0 3.8,-9.6 -6.1,-12.6 z"
             style="fill:#ff6a1f"
             id="path1462" />
          <path
             d="m 573.70001,728.40002 h 29.8 v 111.5 h -29.8 z"
             transform="rotate(180,588.6327,784.2196)"
             class="st8"
             style="fill:#ff6a1f"
             id="path1464" />
          <path
             d="M 581.5,738.29999 588.70001,734 l 7,4.29999 v 91.79999 H 581.5 Z"
             class="st4"
             style="fill:#a34d00"
             id="path1466" />
          <path
             d="m 569.59998,722.90002 h 38.09999 v 5.6 h -38.09999 z"
             transform="rotate(180,588.6693,725.66075)"
             class="st4"
             style="fill:#a34d00"
             id="path1468" />
          <path
             d="m 680.79999,726 h 58 v 114 h -58 z"
             class="st6"
             style="fill:#ff931d"
             id="path1470" />
          <path
             d="m 603.5,756 h 45.4 v 84 h -45.4 z"
             class="st6"
             style="fill:#ff931d"
             id="path1472" />
          <g
             id="g1482">
            <path
               d="m 726.20001,735 h 6.5 v 92.6 h -6.5 z"
               class="st4"
               style="fill:#a34d00"
               id="path1474" />
            <path
               d="m 713.70001,735 h 6.5 v 92.6 h -6.5 z"
               class="st4"
               style="fill:#a34d00"
               id="path1476" />
            <path
               d="m 701.29999,735 h 6.5 v 92.6 h -6.5 z"
               class="st4"
               style="fill:#a34d00"
               id="path1478" />
            <path
               d="m 688.79999,735 h 6.5 v 92.6 h -6.5 z"
               class="st4"
               style="fill:#a34d00"
               id="path1480" />
          </g>
          <g
             id="g1490">
            <path
               d="m 636.5,763.09998 h 6.5 v 65.8 h -6.5 z"
               class="st4"
               style="fill:#a34d00"
               id="path1484" />
            <path
               d="m 624.09998,763.09998 h 6.5 v 65.8 h -6.5 z"
               class="st4"
               style="fill:#a34d00"
               id="path1486" />
            <path
               d="m 611.59998,763.09998 h 6.5 v 65.8 h -6.5 z"
               class="st4"
               style="fill:#a34d00"
               id="path1488" />
          </g>
        </g>
      </g>
      <path
         class="st12"
         d="m 128,839.4 h 1143.1 c 2.1,0 3.7,1.7 3.7,3.7 v 3.7 c 0,2.1 -1.7,3.7 -3.7,3.7 H 128 c -3.1,0 -5.6,-2.5 -5.6,-5.6 v 0 c 0,-2.9 2.5,-5.5 5.6,-5.5 z"
         style="fill:#5e2d04"
         id="path1496" />
    </g>
    <g
       id="g1502">
      <path
         class="st1"
         d="m 635.2,396.3 c -1.3,0 -2.6,0.2 -3.8,0.6 0.2,-0.9 0.3,-1.8 0.3,-2.8 0,-8.1 -8,-14.7 -18,-14.7 -3.4,0 -6.7,0.8 -9.4,2.2 -2.4,-6.6 -9.4,-11.3 -17.5,-11.3 -10,0 -18.1,7.1 -18.5,15.9 -4.1,-2.2 -9.1,-2.5 -13.4,-0.2 -5.5,2.9 -8.2,9 -7.3,14.9 -7.6,0.4 -13.6,6.1 -13.6,13 0,7.1 6.4,12.9 14.3,13 1.9,7.1 8.4,12.3 16.1,12.3 3.5,0 6.7,-1.1 9.4,-2.9 3,5.5 8.9,9.2 15.5,9.2 8.2,0 15.1,-5.6 17.2,-13.1 2.8,2.6 6.5,4.2 10.6,4.2 8.6,0 15.6,-7 15.6,-15.6 0,-0.1 0,-0.3 0,-0.4 0.8,0.1 1.5,0.2 2.3,0.2 6.9,0 12.5,-5.5 12.5,-12.2 0,-6.7 -5.3,-12.3 -12.3,-12.3 z"
         style="fill:#ffffff"
         id="path1500" />
    </g>
    <path
       d="m 167,415.39999 3.60001,6.60001 6.59999,3.60001 -6.59999,3.6 -3.60001,6.59998 -3.60001,-6.59998 -6.59999,-3.6 L 163.39999,422 Z"
       class="st1"
       style="fill:#ffffff"
       id="path1504" />
    <path
       d="m 403.20001,281 4.19998,7.60001 7.60001,4.19998 -7.60001,4.1 -4.19998,7.60001 -4.1,-7.60001 -7.60001,-4.1 7.60001,-4.19998 z"
       class="st1"
       style="fill:#ffffff"
       id="path1506" />
    <path
       d="m 731.29999,400.10001 3.29999,6.1 6.10003,3.29999 -6.10003,3.29999 -3.29999,6.1 -3.39997,-6.1 -6,-3.29999 6,-3.29999 z"
       class="st1"
       style="fill:#ffffff"
       id="path1508" />
    <path
       d="m 469.5,490 4.20001,7.79999 7.69998,4.20001 -7.69998,4.20001 L 469.5,514 465.20001,506.20001 457.5,502 l 7.70001,-4.20001 z"
       class="st1"
       style="fill:#ffffff"
       id="path1510" />
    <path
       d="m 963.59998,367 2.40002,4.39999 4.40002,2.30002 -4.40002,2.4 -2.40002,4.39999 -2.39997,-4.39999 -4.29999,-2.4 4.29999,-2.30002 z"
       class="st1"
       style="fill:#ffffff"
       id="path1514" />
    <path
       d="m 569.29999,141.60001 4.79999,8.69999 8.70001,4.7 -8.70001,4.8 -4.79999,8.7 -4.70001,-8.7 -8.69996,-4.8 8.69996,-4.7 z"
       class="st1"
       style="fill:#ffffff"
       id="path1522" />
    <path
       style="fill:#ddf4fe;stroke-width:1.37703"
       d="m 232.71869,353.67445 c -1.51474,-0.83407 -4.75248,-3.40042 -7.19497,-5.70299 -3.96467,-3.73755 -4.82073,-4.01345 -7.98274,-2.57274 -4.8679,2.21796 -13.77209,2.02394 -18.46397,-0.40233 -4.58207,-2.36948 -11.11192,-9.74348 -11.11192,-12.54841 0,-1.07795 -1.2701,-1.9599 -2.82245,-1.9599 -3.84137,0 -9.57347,-3.13522 -13.5872,-7.43164 -2.53367,-2.71212 -3.32783,-5.09401 -3.32783,-9.98105 0,-5.63716 0.61757,-6.98479 5.07131,-11.06634 2.78922,-2.55613 6.92032,-5.01731 9.18022,-5.46929 3.73724,-0.74744 4.10892,-1.31911 4.10892,-6.31979 0,-4.57884 0.92141,-6.41942 5.5114,-11.00941 5.39964,-5.39964 5.67712,-5.49942 13.68357,-4.92028 l 8.17217,0.59112 2.27526,-5.95768 c 3.45824,-9.05529 9.93637,-13.29607 21.29089,-13.93766 10.77592,-0.60889 15.81254,1.40423 21.57193,8.62225 3.74564,4.69426 3.78589,4.70655 12.90919,3.94169 11.43956,-0.95906 17.80031,1.03365 23.30242,7.30021 3.2112,3.65735 4.19993,6.10356 4.19993,10.391 0,4.62346 0.39493,5.456 2.25041,4.74398 4.05416,-1.55572 11.55729,0.81812 15.70928,4.97012 3.42635,3.42635 4.07285,5.16576 4.07285,10.95801 0,5.75831 -0.65231,7.53749 -3.98564,10.87081 -2.40477,2.40478 -6.09155,4.32298 -9.29498,4.83612 -4.86514,0.77933 -5.53974,1.44181 -8.0634,7.91857 -3.62021,9.29096 -9.45622,13.34256 -19.21892,13.34256 -4.11703,0 -8.23138,-0.85054 -9.77985,-2.02175 -3.42214,-2.58838 -6.11559,-2.6542 -6.11559,-0.14945 0,3.14813 -7.05684,10.64567 -11.94052,12.6862 -5.36995,2.2437 -16.57295,2.39626 -20.41977,0.27807 z"
       id="path2060"
       transform="translate(0,-1.3770337)" />
    <path
       style="fill:#ddf4fe;stroke-width:1.37703"
       d="m 465.43738,258.38385 c -2.27211,-1.0561 -5.86669,-3.76653 -7.98796,-6.02316 -3.84394,-4.08923 -3.87627,-4.09599 -9.65427,-2.01824 -10.19459,3.66596 -21.32078,-0.87227 -26.44837,-10.78795 -1.2678,-2.45166 -3.54014,-4.1924 -6.24948,-4.78747 -6.12526,-1.34533 -13.44358,-8.27462 -14.45971,-13.69103 -1.50069,-7.99938 5.57566,-17.37209 14.61474,-19.35741 2.24315,-0.49268 3.73548,-1.45072 3.31629,-2.12899 -0.41919,-0.67826 -0.10306,-3.68093 0.70251,-6.67259 2.64243,-9.81324 14.03204,-16.01339 23.41061,-12.744 3.76648,1.31301 4.16568,1.17769 4.16568,-1.41199 0,-4.64779 5.40647,-12.03364 10.81078,-14.76877 12.36688,-6.25888 22.328,-4.7196 31.55502,4.87616 5.83063,6.06364 5.91644,6.09785 11.51561,4.59014 14.05626,-3.78495 30.09573,5.95904 30.1125,18.29339 0.005,3.51452 0.41116,3.78684 5.65098,3.78684 4.58471,0 6.52579,0.87996 10.32776,4.68191 3.89848,3.89848 4.68191,5.6906 4.68191,10.70988 0,3.31537 -0.96712,7.4087 -2.14913,9.09628 -2.66103,3.79914 -9.00505,7.1837 -13.46512,7.1837 -2.72806,0 -3.52236,0.87762 -4.23568,4.67993 -1.06964,5.70167 -5.21548,11.20584 -10.49801,13.93754 -5.05561,2.61436 -15.17116,2.6232 -18.61782,0.0163 -3.93814,-2.97865 -5.22909,-2.5921 -7.9016,2.36602 -5.16016,9.57324 -19.63661,14.61744 -29.19724,10.17353 z"
       id="path2062"
       transform="translate(0,-1.3770337)" />
    <path
       style="fill:#ddf4fe;stroke-width:1.37703"
       d="m 583.17376,445.18988 c -1.13606,-0.41338 -3.6993,-2.272 -5.69609,-4.13027 -3.2112,-2.98842 -4.20144,-3.22104 -8.57314,-2.01396 -7.62165,2.10444 -16.36147,-1.2076 -18.16275,-6.88295 -0.47718,-1.50346 -3.55609,-3.88598 -6.84201,-5.29449 -6.65376,-2.85214 -8.92219,-5.99288 -8.92219,-12.35314 0,-4.90174 5.24101,-11.04421 9.42339,-11.04421 1.96934,0 2.90655,-1.29605 3.59644,-4.97347 0.51316,-2.73541 2.45868,-6.49912 4.32336,-8.36381 2.77791,-2.7779 4.5283,-3.32035 9.68989,-3.00294 5.86538,0.36069 6.42096,0.0986 8.06107,-3.80203 2.21325,-5.26377 7.93237,-9.83286 13.65051,-10.90559 5.38484,-1.0102 15.21923,2.64981 18.07488,6.72681 1.70161,2.42939 3.47145,2.89786 11.08444,2.934 8.68054,0.0412 9.25673,0.25818 13.77395,5.18667 2.60188,2.83876 4.71442,6.60978 4.71442,8.4155 0,2.6816 0.57748,3.16146 3.20103,2.65993 5.11108,-0.97704 11.94634,5.60661 11.94634,11.50659 0,6.14762 -5.10816,11.51978 -10.95367,11.51978 -3.58864,0 -4.1937,0.51197 -4.1937,3.54851 0,4.39065 -6.84272,11.5391 -11.2546,11.75743 -5.18672,0.25668 -8.62301,-0.31074 -10.02057,-1.65466 -2.25098,-2.1646 -4.38726,-1.38777 -6.01638,2.18777 -2.99509,6.5735 -13.62079,10.62893 -20.90462,7.97853 z"
       id="path2064"
       transform="translate(0,-1.3770337)" />
    <path
       style="fill:#ddf4fe;stroke-width:1.37703"
       d="m 944.8319,302.68264 c -3.01217,-0.82663 -8.03918,-4.0645 -11.5845,-7.46151 l -6.26319,-6.00119 -6.02079,2.04412 c -14.01188,4.75715 -27.08252,-0.0995 -33.66581,-12.50909 -2.54018,-4.78828 -4.0537,-6.07188 -8.00675,-6.79049 -9.89252,-1.79832 -19.33334,-12.11884 -19.33334,-21.13483 0,-8.94832 8.98195,-18.8841 18.46195,-20.42249 4.7163,-0.76535 4.94762,-1.05932 4.94762,-6.28762 0,-11.79209 9.96885,-21.9564 21.66085,-22.08556 3.61259,-0.0399 7.92521,0.37124 9.5836,0.91366 2.59337,0.84822 3.20249,0.30809 4.35345,-3.86032 1.97532,-7.15403 6.46082,-12.70141 13.72104,-16.96931 5.40973,-3.18008 8.00673,-3.78555 16.09016,-3.75125 11.98057,0.0508 19.68551,3.72228 25.69056,12.24171 l 4.19631,5.95335 6.40059,-1.97492 c 18.34725,-5.66111 38.76085,6.24559 38.76085,22.60817 v 5.26865 l 5.4222,-0.51709 c 11.6295,-1.10906 23.238,10.63701 21.7173,21.97468 -1.3668,10.19065 -9.459,17.70008 -19.0842,17.70994 -4.9096,0.005 -5.0659,0.1695 -6.7216,7.07101 -4.1103,17.13365 -24.5582,25.37685 -39.18152,15.79531 -4.06333,-2.66241 -4.8402,-2.7362 -4.8402,-0.45978 0,0.96025 -1.55679,4.03692 -3.45953,6.83706 -6.68227,9.83385 -21.122,15.02493 -32.84505,11.80779 z"
       id="path2066"
       transform="translate(0,-1.3770337)" />
    <path
       style="fill:#ddf4fe;stroke-width:1.37703"
       d="m 1177.3638,406.97296 c -3.0295,-1.10535 -7.2195,-3.91258 -9.3112,-6.23829 -3.1206,-3.46992 -4.2779,-3.97438 -6.4503,-2.81175 -1.4561,0.77926 -5.9525,1.41684 -9.992,1.41684 -8.9068,0 -16.0587,-4.24977 -19.5564,-11.6207 -1.6747,-3.52913 -3.2168,-4.9037 -5.5013,-4.9037 -5.1183,0 -12.3557,-5.76137 -14.1772,-11.28589 -3.1446,-9.53752 1.2371,-17.54073 11.5372,-21.07269 4.6148,-1.58244 5.3481,-2.44725 6.0189,-7.0985 0.4202,-2.91308 1.523,-6.68435 2.4507,-8.38059 3.1987,-5.84886 14.0311,-9.18242 21.7949,-6.70719 2.5105,0.80039 3.1222,0.2881 3.9035,-3.26926 1.2242,-5.57338 7.0464,-12.33285 12.6337,-14.66739 7.2439,-3.02668 17.9205,-2.39422 24.4804,1.45017 3.1238,1.83066 6.5133,4.88608 7.5321,6.78982 1.7685,3.30452 2.2708,3.42627 11.0855,2.68727 11.5263,-0.96632 17.8683,1.01176 23.3836,7.29341 3.1619,3.60124 4.1999,6.12442 4.1999,10.20925 0,5.24585 0.1318,5.39945 3.9717,4.63145 5.3483,-1.06964 12.7458,2.61817 15.8737,7.91335 5.6402,9.54803 -1.5072,23.24459 -12.1299,23.24459 -4.3068,0 -4.7392,0.41588 -6.1156,5.88214 -3.3209,13.18844 -17.4937,19.68527 -29.5426,13.54238 l -5.1155,-2.60802 -2.276,4.79645 c -4.5888,9.67011 -17.9861,14.71517 -28.6978,10.80685 z"
       id="path2068"
       transform="translate(0,-1.3770337)" />
    <path
       style="fill:#ddf4fe;stroke-width:1.37703"
       d="m 567.33244,165.22694 c -0.48374,-1.52414 -3.02479,-4.22891 -5.64678,-6.0106 l -4.76725,-3.23943 3.96458,-1.64218 c 2.18052,-0.9032 4.91495,-3.6205 6.07651,-6.03845 l 2.11193,-4.39626 2.57581,4.44653 c 1.41669,2.44559 4.30051,5.1629 6.40849,6.03845 l 3.8327,1.59191 -4.76725,3.23943 c -2.62199,1.78169 -5.16304,4.48646 -5.64678,6.0106 -0.48375,1.52414 -1.41569,2.77117 -2.07098,2.77117 -0.6553,0 -1.58723,-1.24703 -2.07098,-2.77117 z"
       id="path2070"
       transform="translate(0,-1.3770337)" />
    <path
       style="fill:#ddf4fe;stroke-width:1.37703"
       d="m 401.3799,301.37599 c -0.91042,-1.99816 -3.27389,-4.37049 -5.25214,-5.27184 l -3.59681,-1.63882 3.64402,-2.21107 c 2.00421,-1.21608 4.36767,-3.7993 5.25213,-5.74048 l 1.60812,-3.52942 1.96797,3.75601 c 1.08239,2.06581 3.65818,4.6416 5.72399,5.72399 l 3.75601,1.96797 -3.87923,1.7675 c -2.13358,0.97212 -4.70937,3.35188 -5.72399,5.28834 l -1.84475,3.52084 z"
       id="path2072"
       transform="translate(0,-1.3770337)" />
    <path
       style="fill:#ddf4fe;stroke-width:1.37703"
       d="m 162.7242,430.57428 c -3.01701,-3.16175 -3.48338,-4.34595 -2.06555,-5.24478 1.00723,-0.63853 2.25431,-1.17045 2.7713,-1.18205 0.51699,-0.0116 1.32753,-1.24214 1.8012,-2.73454 0.80064,-2.52259 1.18857,-2.40199 5.51503,1.71462 4.08092,3.88298 4.36984,4.58701 2.34694,5.71907 -1.26878,0.71005 -3.24403,2.30811 -4.38946,3.55125 -1.91509,2.07847 -2.396,1.9318 -5.97946,-1.82357 z"
       id="path2074"
       transform="translate(0,-1.3770337)" />
    <path
       style="fill:#ddf4fe;stroke-width:1.37703"
       d="m 467.47214,510.67332 c -0.90747,-1.99168 -3.2795,-4.36371 -5.27118,-5.27118 -3.53502,-1.61067 -3.556,-1.6949 -0.88093,-3.53829 3.42899,-2.36292 4.44358,-3.3775 6.80649,-6.80649 1.84722,-2.68063 1.92325,-2.6637 3.49109,0.77732 0.88151,1.9347 3.24255,4.51262 5.24676,5.7287 l 3.64403,2.21106 -3.74867,1.70801 c -2.06177,0.9394 -3.74867,2.10977 -3.74867,2.60081 0,0.49105 -0.87502,2.08947 -1.94448,3.55205 -1.88099,2.57241 -1.99837,2.541 -3.59444,-0.96199 z"
       id="path2076"
       transform="translate(0,-1.3770337)" />
    <path
       style="fill:#ddf4fe;stroke-width:1.37703"
       d="m 727.4668,414.1961 c -2.90388,-3.16935 -3.24261,-4.15406 -1.64044,-4.76887 1.11049,-0.42614 2.90506,-2.4054 3.98792,-4.39835 1.08286,-1.99296 1.99365,-2.8194 2.02398,-1.83652 0.0303,0.98287 1.52054,3.1517 3.31159,4.81961 l 3.25646,3.03258 -3.63999,3.57282 -3.63999,3.57281 z"
       id="path2078"
       transform="translate(0,-1.3770337)" />
    <path
       style="fill:#ddf4fe;stroke-width:1.37703"
       d="m 960.92179,377.38727 c -2.75157,-2.22809 -2.75138,-2.2348 0.12299,-4.38395 2.61406,-1.95452 3.07869,-1.95057 5.05266,0.043 1.98073,2.00034 1.96981,2.38985 -0.12299,4.38395 -2.09944,2.00042 -2.53376,1.99673 -5.05266,-0.043 z"
       id="path2080"
       transform="translate(0,-1.3770337)" />
    <path
       fill="#edc655"
       class="sun"
       d="m 1125.8044,114.29219 c 0,-21.644266 17.5458,-39.190136 39.1884,-39.190136 21.6443,0 39.1901,17.54587 39.1901,39.190136 0,21.64257 -17.5458,39.19014 -39.1901,39.19014 -21.6426,0 -39.1884,-17.54757 -39.1884,-39.19014"
       id="path313"
       style="stroke-width:1.702" />
    <path
       fill="#1a232c"
       d="m 1125.8044,114.29219 h 1.702 c 0,-10.35834 4.1937,-19.719316 10.9795,-26.508576 6.7893,-6.78585 16.1503,-10.97956 26.5069,-10.97956 10.3583,0 19.7193,4.19371 26.5086,10.97956 6.7858,6.78926 10.9778,16.150236 10.9795,26.508576 0,10.35664 -4.1937,19.71761 -10.9795,26.50687 -6.7893,6.78756 -16.1503,10.97957 -26.5086,10.98127 -10.3566,-0.002 -19.7176,-4.19371 -26.5069,-10.98127 -6.7858,-6.78926 -10.9778,-16.15023 -10.9795,-26.50687 h -3.404 c 0,22.58377 18.3066,40.89043 40.8904,40.89213 22.5855,-0.002 40.8904,-18.30836 40.8921,-40.89213 0,-22.585476 -18.3066,-40.892136 -40.8921,-40.892136 -22.5838,0 -40.8887,18.30666 -40.8904,40.892136 h 1.702 m 1.7973,-34.461996 c 5.5502,-6.01825 12.5335,-10.693633 20.4052,-13.483203 0.8867,-0.313167 1.3497,-1.286708 1.0365,-2.171746 -0.3132,-0.886739 -1.2867,-1.349682 -2.1717,-1.036515 -8.4045,2.978492 -15.8541,7.965337 -21.772,14.383564 -0.6365,0.69101 -0.594,1.76837 0.097,2.40492 0.6911,0.63824 1.7684,0.59399 2.405,-0.097 z m 33.2484,-16.221713 c 1.3667,-0.11063 2.7488,-0.166796 4.1427,-0.166796 7.1041,0 13.8593,1.455206 19.9967,4.083087 0.8647,0.369333 1.8654,-0.03064 2.2348,-0.89525 0.3693,-0.864613 -0.031,-1.865387 -0.8953,-2.234719 -6.5493,-2.804888 -13.7657,-4.357108 -21.3362,-4.357108 -1.4858,0 -2.9598,0.05957 -4.4167,0.177007 -0.9361,0.07659 -1.6339,0.896952 -1.559,1.833049 0.075,0.9378 0.8952,1.635618 1.833,1.56073 z m 35.4441,10.606833 c 6.4744,5.06344 11.6893,11.66207 15.0984,19.24276 0.3863,0.8578 1.3939,1.24075 2.2517,0.8544 0.8561,-0.38465 1.2391,-1.39223 0.8544,-2.25004 -3.6405,-8.09299 -9.2027,-15.12733 -16.106,-20.529464 -0.7403,-0.578678 -1.8109,-0.447625 -2.3896,0.292743 -0.5786,0.740368 -0.4493,1.810921 0.2911,2.389601 z m 18.8819,31.817096 c 0.4374,2.68745 0.6655,5.44638 0.6655,8.25978 0,5.64041 -0.9157,11.05956 -2.6092,16.1247 -0.2978,0.89185 0.1839,1.85688 1.0757,2.15473 0.8919,0.29785 1.8552,-0.18382 2.153,-1.07566 1.8075,-5.40724 2.7845,-11.19403 2.7845,-17.20377 0,-2.99722 -0.2434,-5.93996 -0.7114,-8.80783 -0.1515,-0.92758 -1.0263,-1.55732 -1.9539,-1.40584 -0.9276,0.15147 -1.5557,1.0263 -1.4042,1.95389 z m -7.6896,36.19633 c -4.5375,6.88967 -10.7089,12.61178 -17.956,16.61147 -0.8238,0.45443 -1.1217,1.48924 -0.6672,2.31301 0.4527,0.82377 1.4892,1.12162 2.3113,0.66718 7.7356,-4.2686 14.3138,-10.36855 19.1542,-17.71777 0.5174,-0.78462 0.3013,-1.84156 -0.485,-2.35726 -0.7846,-0.51741 -1.8399,-0.30125 -2.3573,0.48337 z m -30.1798,21.4111 c -3.9418,0.98034 -8.064,1.50116 -12.3139,1.50116 -4.1869,0 -8.253,-0.5055 -12.1437,-1.45861 -0.914,-0.22467 -1.8348,0.33529 -2.0578,1.24756 -0.2246,0.91397 0.3336,1.83475 1.2476,2.05771 4.1529,1.01779 8.493,1.55733 12.9539,1.55733 4.5273,0 8.9287,-0.55486 13.136,-1.60158 0.9123,-0.22637 1.4671,-1.15055 1.2407,-2.06112 -0.2263,-0.91227 -1.1505,-1.46882 -2.0628,-1.24245 z m -36.7001,-4.71623 c -7.2624,-3.97757 -13.4526,-9.67925 -18.0122,-16.55191 -0.5208,-0.78291 -1.5761,-0.99737 -2.359,-0.47655 -0.7846,0.5191 -0.9973,1.57604 -0.4782,2.35896 4.866,7.33049 11.4646,13.41002 19.2138,17.6548 0.8255,0.45102 1.8586,0.14807 2.3113,-0.6757 0.451,-0.82376 0.1481,-1.85857 -0.6757,-2.3096 z m -23.7973,-28.34333 c -1.7275,-5.11109 -2.6636,-10.58811 -2.6653,-16.28809 0,-8.57976 2.1224,-16.652316 5.8685,-23.737726 0.4391,-0.83057 0.1225,-1.86028 -0.7081,-2.29939 -0.8322,-0.44082 -1.8619,-0.12255 -2.3011,0.70803 -3.9979,7.56026 -6.2633,16.185966 -6.2633,25.329086 0,6.07442 1.0008,11.92077 2.844,17.37907 0.3013,0.89014 1.268,1.3684 2.1582,1.06715 0.8901,-0.30125 1.3684,-1.26628 1.0671,-2.15813 z"
       id="path315"
       style="stroke-width:1.702" />
  </g>
</svg>
