<?xml version="1.0" ?><!DOCTYPE svg  PUBLIC '-//W3C//DTD SVG 1.1//EN'  'http://www.w3.org/Graphics/SVG/1.1/DTD/svg11.dtd'><svg enable-background="new 0 0 24 24" height="24px" id="Layer_1" version="1.1" viewBox="0 0 24 24" width="24px" xml:space="preserve" xmlns="http://www.w3.org/2000/svg" xmlns:xlink="http://www.w3.org/1999/xlink"><g><path d="M19.7,0.5H4.3c-2.1,0-3.8,1.7-3.8,3.8v15.4c0,2.1,1.7,3.8,3.8,3.8h15.4c2.1,0,3.8-1.7,3.8-3.8V4.3   C23.5,2.2,21.8,0.5,19.7,0.5z M16.7,6l-1,2.9c0,0.1-0.1,0.2-0.3,0.3c-0.1,0.1-0.3,0-0.4,0c0,0-0.8-0.4-1.7-0.4   c-0.7,0-1.1,0.3-1.1,0.7c0,0.3,0.5,0.6,1,1c1,0.8,2.5,1.8,2.5,3.9c0,2.7-1.7,4.5-4.1,4.5c-2.7,0-4.1-1.7-4.2-1.7   c-0.1-0.1-0.1-0.3-0.1-0.4L8,14.6c0-0.2,0.2-0.3,0.3-0.3c0.2,0,0.3,0,0.5,0.1c0.3,0.3,1.4,1,2.1,1c0.5,0,0.5-0.5,0.5-0.5   c0-0.5-0.4-0.8-1-1.3c-0.8-0.7-1.9-1.5-1.9-3.3c0-2.5,1.8-5.2,5.7-5.2c1.4,0,2.2,0.4,2.2,0.4C16.7,5.6,16.8,5.8,16.7,6z"/></g></svg>